HIERARCHY
ROOT Hips
{
	OFFSET 0.000000 100.481300 0.000000
	CHANNELS 6 Xposition Yposition Zposition Xrotation Yrotation Zrotation
	JOINT Spine
	{
		OFFSET -0.279200 12.230698 -2.892100
		CHANNELS 3 Xrotation Yrotation Zrotation
		JOINT Spine1
		{
			OFFSET -0.325700 14.269203 -3.374200
			CHANNELS 3 Xrotation Yrotation Zrotation
			JOINT Spine2
			{
				OFFSET -0.372300 16.307602 -0.352600
				CHANNELS 3 Xrotation Yrotation Zrotation
				JOINT Neck
				{
					OFFSET -0.418800 17.814194 8.416900
					CHANNELS 3 Xrotation Yrotation Zrotation
					JOINT Head
					{
						OFFSET 0.000000 7.031097 3.806800
						CHANNELS 3 Xrotation Yrotation Zrotation
						JOINT HeadTop_End
						{
							OFFSET 0.000000 24.646606 12.978600
							CHANNELS 3 Xrotation Yrotation Zrotation
							End Site
							{
								OFFSET 0.000000 27.854965 0.000000
							}
						}
					}
				}
				JOINT LeftShoulder
				{
					OFFSET 16.952999 14.495407 -7.737500
					CHANNELS 3 Xrotation Yrotation Zrotation
					JOINT LeftArm
					{
						OFFSET 9.308998 -2.777710 0.208600
						CHANNELS 3 Xrotation Yrotation Zrotation
						JOINT LeftForeArm
						{
							OFFSET 29.972298 0.000000 0.000000
							CHANNELS 3 Xrotation Yrotation Zrotation
							JOINT LeftHand
							{
								OFFSET 26.026505 0.000000 0.000000
								CHANNELS 3 Xrotation Yrotation Zrotation
								JOINT LeftHandThumb1
								{
									OFFSET 12.240501 -7.147949 9.207150
									CHANNELS 3 Xrotation Yrotation Zrotation
									JOINT LeftHandThumb2
									{
										OFFSET 4.138618 -2.389435 2.389433
										CHANNELS 3 Xrotation Yrotation Zrotation
										JOINT LeftHandThumb3
										{
											OFFSET 2.726913 -1.574387 1.574386
											CHANNELS 3 Xrotation Yrotation Zrotation
											JOINT LeftHandThumb4
											{
												OFFSET 3.941010 -2.275345 2.275342
												CHANNELS 3 Xrotation Yrotation Zrotation
												End Site
												{
													OFFSET -0.005798 5.087799 0.009903
												}
											}
										}
									}
								}
								JOINT LeftHandIndex1
								{
									OFFSET 24.424698 -1.985611 5.953459
									CHANNELS 3 Xrotation Yrotation Zrotation
									JOINT LeftHandIndex2
									{
										OFFSET 6.426697 0.000000 0.000000
										CHANNELS 3 Xrotation Yrotation Zrotation
										JOINT LeftHandIndex3
										{
											OFFSET 5.337898 0.000000 0.000000
											CHANNELS 3 Xrotation Yrotation Zrotation
											JOINT LeftHandIndex4
											{
												OFFSET 4.409401 0.000000 0.000000
												CHANNELS 3 Xrotation Yrotation Zrotation
												End Site
												{
													OFFSET 0.000000 4.409363 0.014373
												}
											}
										}
									}
								}
								JOINT LeftHandMiddle1
								{
									OFFSET 23.810104 0.000000 0.000000
									CHANNELS 3 Xrotation Yrotation Zrotation
									JOINT LeftHandMiddle2
									{
										OFFSET 7.176498 0.000000 0.000000
										CHANNELS 3 Xrotation Yrotation Zrotation
										JOINT LeftHandMiddle3
										{
											OFFSET 6.774902 0.000000 0.000000
											CHANNELS 3 Xrotation Yrotation Zrotation
											JOINT LeftHandMiddle4
											{
												OFFSET 5.403328 0.000000 0.000000
												CHANNELS 3 Xrotation Yrotation Zrotation
												End Site
												{
													OFFSET -0.027702 5.403244 0.017414
												}
											}
										}
									}
								}
								JOINT LeftHandRing1
								{
									OFFSET 22.908401 -0.839279 -6.020567
									CHANNELS 3 Xrotation Yrotation Zrotation
									JOINT LeftHandRing2
									{
										OFFSET 6.337502 0.000000 0.000000
										CHANNELS 3 Xrotation Yrotation Zrotation
										JOINT LeftHandRing3
										{
											OFFSET 5.779297 0.000000 0.000000
											CHANNELS 3 Xrotation Yrotation Zrotation
											JOINT LeftHandRing4
											{
												OFFSET 4.965698 0.000000 0.000000
												CHANNELS 3 Xrotation Yrotation Zrotation
												End Site
												{
													OFFSET 0.000000 4.965668 0.016186
												}
											}
										}
									}
								}
								JOINT LeftHandPinky1
								{
									OFFSET 20.037003 -1.530319 -10.950146
									CHANNELS 3 Xrotation Yrotation Zrotation
									JOINT LeftHandPinky2
									{
										OFFSET 5.254700 0.000000 0.000000
										CHANNELS 3 Xrotation Yrotation Zrotation
										JOINT LeftHandPinky3
										{
											OFFSET 4.810204 0.000000 0.000000
											CHANNELS 3 Xrotation Yrotation Zrotation
											JOINT LeftHandPinky4
											{
												OFFSET 3.647202 0.000000 0.000000
												CHANNELS 3 Xrotation Yrotation Zrotation
												End Site
												{
													OFFSET 0.000000 3.647186 0.011889
												}
											}
										}
									}
								}
							}
						}
					}
				}
				JOINT RightShoulder
				{
					OFFSET -15.141001 14.495407 -7.737500
					CHANNELS 3 Xrotation Yrotation Zrotation
					JOINT RightArm
					{
						OFFSET -9.308998 -2.777710 0.208500
						CHANNELS 3 Xrotation Yrotation Zrotation
						JOINT RightForeArm
						{
							OFFSET -29.972300 0.000000 0.000000
							CHANNELS 3 Xrotation Yrotation Zrotation
							JOINT RightHand
							{
								OFFSET -26.026505 0.000000 0.000000
								CHANNELS 3 Xrotation Yrotation Zrotation
								JOINT RightHandThumb1
								{
									OFFSET -12.240601 -7.148026 9.207092
									CHANNELS 3 Xrotation Yrotation Zrotation
									JOINT RightHandThumb2
									{
										OFFSET -4.138618 -2.389435 2.389433
										CHANNELS 3 Xrotation Yrotation Zrotation
										JOINT RightHandThumb3
										{
											OFFSET -2.726974 -1.574417 1.574421
											CHANNELS 3 Xrotation Yrotation Zrotation
											JOINT RightHandThumb4
											{
												OFFSET -3.941010 -2.275345 2.275343
												CHANNELS 3 Xrotation Yrotation Zrotation
												End Site
												{
													OFFSET 0.005814 5.087799 0.009927
												}
											}
										}
									}
								}
								JOINT RightHandIndex1
								{
									OFFSET -24.424698 -1.985657 5.953444
									CHANNELS 3 Xrotation Yrotation Zrotation
									JOINT RightHandIndex2
									{
										OFFSET -6.426697 0.000000 0.000000
										CHANNELS 3 Xrotation Yrotation Zrotation
										JOINT RightHandIndex3
										{
											OFFSET -5.337898 0.000000 0.000000
											CHANNELS 3 Xrotation Yrotation Zrotation
											JOINT RightHandIndex4
											{
												OFFSET -4.409401 0.000000 0.000000
												CHANNELS 3 Xrotation Yrotation Zrotation
												End Site
												{
													OFFSET 0.000000 4.409363 0.014408
												}
											}
										}
									}
								}
								JOINT RightHandMiddle1
								{
									OFFSET -23.810097 0.000000 0.000000
									CHANNELS 3 Xrotation Yrotation Zrotation
									JOINT RightHandMiddle2
									{
										OFFSET -7.176498 0.000000 0.000000
										CHANNELS 3 Xrotation Yrotation Zrotation
										JOINT RightHandMiddle3
										{
											OFFSET -6.774902 0.000000 0.000000
											CHANNELS 3 Xrotation Yrotation Zrotation
											JOINT RightHandMiddle4
											{
												OFFSET -5.403328 0.000000 0.000000
												CHANNELS 3 Xrotation Yrotation Zrotation
												End Site
												{
													OFFSET 0.027702 5.403244 0.017457
												}
											}
										}
									}
								}
								JOINT RightHandRing1
								{
									OFFSET -22.908302 -0.839325 -6.020576
									CHANNELS 3 Xrotation Yrotation Zrotation
									JOINT RightHandRing2
									{
										OFFSET -6.337502 0.000000 0.000000
										CHANNELS 3 Xrotation Yrotation Zrotation
										JOINT RightHandRing3
										{
											OFFSET -5.779297 0.000000 0.000000
											CHANNELS 3 Xrotation Yrotation Zrotation
											JOINT RightHandRing4
											{
												OFFSET -4.965698 0.000000 0.000000
												CHANNELS 3 Xrotation Yrotation Zrotation
												End Site
												{
													OFFSET 0.000000 4.965668 0.016226
												}
											}
										}
									}
								}
								JOINT RightHandPinky1
								{
									OFFSET -20.037003 -1.530334 -10.950259
									CHANNELS 3 Xrotation Yrotation Zrotation
									JOINT RightHandPinky2
									{
										OFFSET -5.254700 0.000000 0.000000
										CHANNELS 3 Xrotation Yrotation Zrotation
										JOINT RightHandPinky3
										{
											OFFSET -4.810204 0.000000 0.000000
											CHANNELS 3 Xrotation Yrotation Zrotation
											JOINT RightHandPinky4
											{
												OFFSET -3.647202 0.000000 0.000000
												CHANNELS 3 Xrotation Yrotation Zrotation
												End Site
												{
													OFFSET 0.000000 3.647186 0.011917
												}
											}
										}
									}
								}
							}
						}
					}
				}
			}
		}
	}
	JOINT LeftUpLeg
	{
		OFFSET 15.427100 -6.655098 0.678600
		CHANNELS 3 Xrotation Yrotation Zrotation
		JOINT LeftLeg
		{
			OFFSET 4.081073 -39.591068 13.024000
			CHANNELS 3 Xrotation Yrotation Zrotation
			JOINT LeftFoot
			{
				OFFSET -4.081074 -37.707932 -15.979700
				CHANNELS 3 Xrotation Yrotation Zrotation
				JOINT LeftToeBase
				{
					OFFSET 5.346399 -15.068900 20.645000
					CHANNELS 3 Xrotation Yrotation Zrotation
					JOINT LeftToe_End
					{
						OFFSET 2.754700 0.931300 11.300900
						CHANNELS 3 Xrotation Yrotation Zrotation
						End Site
						{
							OFFSET 0.000000 11.669021 0.000000
						}
					}
				}
			}
		}
	}
	JOINT RightUpLeg
	{
		OFFSET -15.569500 -6.655098 0.678600
		CHANNELS 3 Xrotation Yrotation Zrotation
		JOINT RightLeg
		{
			OFFSET -4.081825 -39.591045 13.023800
			CHANNELS 3 Xrotation Yrotation Zrotation
			JOINT RightFoot
			{
				OFFSET 4.081824 -37.707954 -15.979600
				CHANNELS 3 Xrotation Yrotation Zrotation
				JOINT RightToeBase
				{
					OFFSET -5.346400 -15.068900 20.645000
					CHANNELS 3 Xrotation Yrotation Zrotation
					JOINT RightToe_End
					{
						OFFSET -2.754700 0.931300 11.300900
						CHANNELS 3 Xrotation Yrotation Zrotation
						End Site
						{
							OFFSET 0.000000 11.669021 0.000000
						}
					}
				}
			}
		}
	}
}
MOTION
Frames: 4
Frame Time: 0.033333
0.564197 49.294846 16.302593 0.145798 0.084724 0.847724 10.430406 0.113311 -1.467000 -0.199088 0.213333 -0.348784 -0.199388 0.248519 -0.300862 -1.001771 -1.284342 0.469464 -8.883773 -4.327413 -5.326923 0.000000 0.000000 0.000000 0.823525 -15.262003 -7.868724 4.746555 -21.216463 -54.862166 0.000041 -62.197834 0.000047 31.063010 4.315327 41.770490 6.610618 1.798245 20.801503 2.716383 20.172581 -24.389163 -5.537238 29.849515 5.070894 -0.000000 0.000002 0.000002 -0.235309 2.798405 -26.913100 0.396824 2.121301 -21.189298 0.083132 0.984450 -9.653139 -0.000001 -0.000001 0.000001 1.299146 7.334327 -16.511079 0.329950 1.940088 -19.302244 0.233122 1.637768 -16.201250 -0.000001 -0.000002 0.000003 1.797283 9.808116 -14.183656 0.205917 1.541126 -15.220634 0.265322 1.744706 -17.292065 -0.000001 -0.000003 0.000000 2.042407 10.867307 -13.918992 0.168518 1.396419 -13.761333 0.107166 1.116564 -10.963902 -0.000004 -0.000002 0.000000 3.171102 -4.378748 8.782859 -3.950406 37.253348 63.733527 0.000015 55.138287 -0.000026 43.537467 4.741015 -36.278106 -9.383517 -1.613374 -17.604715 3.557099 -24.337012 34.656841 -6.608468 -37.497305 -11.176171 -0.000001 -0.000003 -0.000001 2.957835 1.012860 13.529995 0.472470 -2.045691 26.006734 0.059749 -0.744398 9.177794 0.000001 0.000000 -0.000000 0.105541 -3.665052 2.525362 0.585005 -2.261695 29.000587 0.020467 -0.436578 5.367130 -0.000001 -0.000001 0.000002 0.456430 -7.644378 4.305908 0.107463 -0.995726 12.319032 0.072390 -0.818822 10.104466 -0.000000 0.000001 -0.000000 -11.162324 -10.227924 7.169813 0.029120 -0.520507 6.403067 0.028649 -0.516317 6.351260 -0.000004 0.000001 -0.000002 -86.311495 -11.432798 18.500279 79.644684 -0.698172 -3.144501 9.215531 -6.280151 -9.759254 -0.103113 0.000004 0.000000 -0.000000 -0.000000 0.000000 -88.057449 12.729251 -14.139859 80.265610 0.667632 1.250255 10.521590 -0.516124 10.736560 -0.191611 -0.000000 0.000001 -0.000000 0.000000 -0.000000 
0.566484 49.292824 16.339294 0.449844 0.303217 0.842255 10.582254 0.088213 -1.462282 0.104551 0.151636 -0.349238 0.104173 0.191838 -0.288099 -1.316331 -1.284342 0.469465 -10.197354 -4.342304 -5.347565 0.000000 -0.000000 0.000000 0.958378 -14.590795 -7.018814 -0.924362 -22.307690 -56.717293 -0.000019 -61.909142 -0.000016 26.727060 -1.263250 38.044577 8.240954 -0.956446 23.337115 3.088524 20.115047 -24.063685 -5.483646 28.557631 4.930618 0.000001 0.000001 0.000003 0.296596 3.123768 -28.627160 0.422104 2.185331 -21.862261 0.147539 1.307850 -12.872405 0.000000 0.000000 -0.000000 1.271748 7.342868 -16.035119 0.351024 1.999182 -19.915133 0.340396 1.969586 -19.607957 0.000000 -0.000001 0.000000 1.761514 9.787008 -13.911008 0.213899 1.570131 -15.514741 0.380120 2.077698 -20.733154 0.000001 -0.000001 0.000002 2.156907 11.360962 -13.819052 0.175064 1.422883 -14.027582 0.179923 1.442187 -14.221916 -0.000004 0.000000 -0.000000 3.136229 -4.624704 8.396097 -5.896053 32.645227 63.985021 -0.000038 62.122517 0.000042 33.726525 7.881064 -37.112977 -11.280759 1.453395 -18.369983 4.232635 -23.686990 32.970621 -6.940561 -37.074011 -13.055705 0.000001 0.000000 -0.000001 2.736092 0.624768 14.095717 0.511806 -2.124394 27.088143 0.065516 -0.779223 9.611165 0.000000 0.000000 -0.000002 0.140599 -3.892816 3.561634 0.652514 -2.379306 30.667901 0.028165 -0.512034 6.298505 -0.000000 -0.000003 0.000000 0.507039 -7.422895 5.132951 0.151925 -1.181053 14.659664 0.103103 -0.975570 12.065720 -0.000004 0.000000 0.000000 -10.677221 -10.497865 6.937106 0.065557 -0.779498 9.614457 0.050748 -0.686378 8.456831 -0.000002 -0.000000 -0.000001 -86.725596 -11.361788 18.300464 79.590746 -0.718850 -3.129646 9.312610 -6.290571 -9.677197 -0.103113 0.000004 0.000000 0.000000 0.000000 0.000000 -88.245088 12.911369 -14.283738 80.340305 0.584427 1.272810 10.427019 -0.530264 10.907621 -0.191611 -0.000001 0.000001 -0.000000 -0.000001 -0.000000 
0.568619 49.289726 16.378908 0.763948 0.527459 0.839583 10.747368 0.064884 -1.456193 0.432091 0.083553 -0.345888 0.431775 0.126147 -0.276050 -1.679896 -1.284342 0.469465 -11.508379 -4.374276 -5.366055 -0.000000 -0.000000 -0.000000 1.053333 -13.976082 -6.243442 -6.698248 -23.057016 -59.775637 0.000075 -61.697652 0.000088 22.320708 -6.464214 35.160250 10.269746 -3.645587 25.688304 3.610038 19.751145 -23.993826 -5.161263 27.207270 4.478802 0.000001 -0.000000 0.000002 0.800274 3.522545 -30.888612 0.516670 2.407433 -24.221623 0.288777 1.818338 -18.046762 -0.000000 -0.000003 -0.000001 1.250839 6.625485 -20.063206 0.435460 2.218293 -22.209786 0.552708 2.485952 -25.066009 0.000001 -0.000000 0.000001 1.478660 7.887752 -16.668546 0.267821 1.752713 -17.373991 0.604771 2.594239 -26.240513 0.000001 -0.000003 0.000001 2.075676 9.998115 -16.424853 0.222632 1.601246 -15.830128 0.335133 1.954806 -19.454587 -0.000000 -0.000001 -0.000003 3.075684 -5.063162 7.868958 -7.639474 27.884196 64.119610 -0.000048 69.651107 0.000044 20.240740 10.863861 -31.124827 -12.323442 3.637754 -18.842899 5.204036 -23.039386 31.156830 -6.839543 -36.250341 -14.894039 0.000000 0.000001 0.000001 2.417344 0.002881 15.965381 0.573602 -2.240979 28.710126 0.090011 -0.912161 11.270962 -0.000000 0.000002 -0.000002 0.236336 -4.328730 5.888144 0.750282 -2.536814 32.947313 0.050949 -0.687729 8.473737 -0.000002 0.000001 -0.000001 0.664061 -7.275648 7.303022 0.216386 -1.404459 17.515721 0.167251 -1.238184 15.386330 0.000007 -0.000001 -0.000000 -10.186495 -11.003828 7.973877 0.126893 -1.080830 13.390867 0.100725 -0.964420 11.925914 0.000001 0.000000 -0.000003 -87.150270 -11.287297 18.095384 79.535968 -0.739207 -3.114863 9.410850 -6.301997 -9.592363 -0.103113 0.000006 0.000000 0.000000 0.000000 0.000000 -88.439509 13.104547 -14.435839 80.421352 0.504613 1.293653 10.327626 -0.547031 11.086564 -0.191611 -0.000000 0.000001 -0.000000 -0.000000 -0.000000 
0.570151 49.292381 16.414507 1.083778 0.756457 0.835872 10.918631 0.045562 -1.449709 0.774496 0.017915 -0.340211 0.774295 0.060917 -0.264521 -2.080802 -1.284342 0.469464 -12.817358 -4.426714 -5.384581 -0.000000 0.000000 0.000001 1.472832 -13.559269 -5.687926 -11.119108 -23.183421 -62.156477 -0.000008 -62.972582 -0.000001 17.825482 -10.901130 32.348565 14.099751 -5.616860 25.955911 4.238079 19.192261 -24.096991 -4.644570 25.841975 3.813608 -0.000000 0.000001 -0.000001 1.323219 3.918095 -33.294201 0.855717 3.050410 -31.333722 0.691411 2.762915 -28.094593 0.000000 0.000002 -0.000000 1.410568 6.310016 -28.682686 0.748633 2.867386 -29.259540 1.087524 3.401515 -35.451144 0.000000 0.000003 0.000000 1.306183 6.381312 -24.014969 0.506251 2.384216 -23.972636 1.161434 3.502795 -36.678416 0.000000 -0.000001 0.000000 1.751218 9.099333 -23.672396 0.439243 2.227520 -22.307058 0.764333 2.895194 -29.571936 0.000000 -0.000000 -0.000001 3.008547 -5.482985 7.355449 -9.252671 23.240448 63.979079 -0.000070 77.299512 0.000047 4.665500 10.159106 -21.268384 -10.351287 2.138195 -17.880136 6.549800 -22.357533 28.076433 -4.993250 -33.992448 -16.413602 -0.000000 0.000002 -0.000002 1.844712 -1.259740 20.994963 0.648866 -2.373162 30.579986 0.183956 -1.297278 16.140295 -0.000000 -0.000000 -0.000000 0.563782 -5.299468 11.327918 0.872285 -2.715651 35.609731 0.136663 -1.121094 13.899747 -0.000001 -0.000000 -0.000001 1.045598 -7.231821 12.512870 0.302084 -1.651591 20.729091 0.341595 -1.752338 22.058770 -0.000000 0.000001 -0.000000 -10.204454 -12.193792 12.004624 0.214760 -1.399378 17.450061 0.245696 -1.494154 18.674784 -0.000000 -0.000000 0.000001 -87.574998 -11.204616 17.884692 79.467728 -0.757036 -3.098990 9.515527 -6.313891 -9.504877 -0.103113 0.000005 0.000000 -0.000000 -0.000001 -0.000000 -88.629689 13.299823 -14.591362 80.493165 0.421006 1.313844 10.229678 -0.556692 11.266906 -0.191611 -0.000000 0.000001 0.000000 -0.000000 0.000000 
